G04 #@! TF.GenerationSoftware,KiCad,Pcbnew,(5.1.4)-1*
G04 #@! TF.CreationDate,2019-10-01T17:45:58-03:00*
G04 #@! TF.ProjectId,exemplo_curso,6578656d-706c-46f5-9f63-7572736f2e6b,rev?*
G04 #@! TF.SameCoordinates,Original*
G04 #@! TF.FileFunction,Soldermask,Top*
G04 #@! TF.FilePolarity,Negative*
%FSLAX46Y46*%
G04 Gerber Fmt 4.6, Leading zero omitted, Abs format (unit mm)*
G04 Created by KiCad (PCBNEW (5.1.4)-1) date 2019-10-01 17:45:58*
%MOMM*%
%LPD*%
G04 APERTURE LIST*
%ADD10C,0.100000*%
G04 APERTURE END LIST*
D10*
G36*
X146216823Y-77901313D02*
G01*
X146377242Y-77949976D01*
X146444361Y-77985852D01*
X146525078Y-78028996D01*
X146654659Y-78135341D01*
X146761004Y-78264922D01*
X146761005Y-78264924D01*
X146840024Y-78412758D01*
X146888687Y-78573177D01*
X146905117Y-78740000D01*
X146888687Y-78906823D01*
X146840024Y-79067242D01*
X146799477Y-79143100D01*
X146761004Y-79215078D01*
X146654659Y-79344659D01*
X146525078Y-79451004D01*
X146525076Y-79451005D01*
X146377242Y-79530024D01*
X146216823Y-79578687D01*
X146091804Y-79591000D01*
X146008196Y-79591000D01*
X145883177Y-79578687D01*
X145722758Y-79530024D01*
X145574924Y-79451005D01*
X145574922Y-79451004D01*
X145445341Y-79344659D01*
X145338996Y-79215078D01*
X145300523Y-79143100D01*
X145259976Y-79067242D01*
X145211313Y-78906823D01*
X145194883Y-78740000D01*
X145211313Y-78573177D01*
X145259976Y-78412758D01*
X145338995Y-78264924D01*
X145338996Y-78264922D01*
X145445341Y-78135341D01*
X145574922Y-78028996D01*
X145655639Y-77985852D01*
X145722758Y-77949976D01*
X145883177Y-77901313D01*
X146008196Y-77889000D01*
X146091804Y-77889000D01*
X146216823Y-77901313D01*
X146216823Y-77901313D01*
G37*
G36*
X136138228Y-77921703D02*
G01*
X136293100Y-77985853D01*
X136432481Y-78078985D01*
X136551015Y-78197519D01*
X136644147Y-78336900D01*
X136708297Y-78491772D01*
X136741000Y-78656184D01*
X136741000Y-78823816D01*
X136708297Y-78988228D01*
X136644147Y-79143100D01*
X136551015Y-79282481D01*
X136432481Y-79401015D01*
X136293100Y-79494147D01*
X136138228Y-79558297D01*
X135973816Y-79591000D01*
X135806184Y-79591000D01*
X135641772Y-79558297D01*
X135486900Y-79494147D01*
X135347519Y-79401015D01*
X135228985Y-79282481D01*
X135135853Y-79143100D01*
X135071703Y-78988228D01*
X135039000Y-78823816D01*
X135039000Y-78656184D01*
X135071703Y-78491772D01*
X135135853Y-78336900D01*
X135228985Y-78197519D01*
X135347519Y-78078985D01*
X135486900Y-77985853D01*
X135641772Y-77921703D01*
X135806184Y-77889000D01*
X135973816Y-77889000D01*
X136138228Y-77921703D01*
X136138228Y-77921703D01*
G37*
G36*
X139866823Y-77901313D02*
G01*
X140027242Y-77949976D01*
X140094361Y-77985852D01*
X140175078Y-78028996D01*
X140304659Y-78135341D01*
X140411004Y-78264922D01*
X140411005Y-78264924D01*
X140490024Y-78412758D01*
X140538687Y-78573177D01*
X140555117Y-78740000D01*
X140538687Y-78906823D01*
X140490024Y-79067242D01*
X140449477Y-79143100D01*
X140411004Y-79215078D01*
X140304659Y-79344659D01*
X140175078Y-79451004D01*
X140175076Y-79451005D01*
X140027242Y-79530024D01*
X139866823Y-79578687D01*
X139741804Y-79591000D01*
X139658196Y-79591000D01*
X139533177Y-79578687D01*
X139372758Y-79530024D01*
X139224924Y-79451005D01*
X139224922Y-79451004D01*
X139095341Y-79344659D01*
X138988996Y-79215078D01*
X138950523Y-79143100D01*
X138909976Y-79067242D01*
X138861313Y-78906823D01*
X138844883Y-78740000D01*
X138861313Y-78573177D01*
X138909976Y-78412758D01*
X138988995Y-78264924D01*
X138988996Y-78264922D01*
X139095341Y-78135341D01*
X139224922Y-78028996D01*
X139305639Y-77985852D01*
X139372758Y-77949976D01*
X139533177Y-77901313D01*
X139658196Y-77889000D01*
X139741804Y-77889000D01*
X139866823Y-77901313D01*
X139866823Y-77901313D01*
G37*
G36*
X156458228Y-77921703D02*
G01*
X156613100Y-77985853D01*
X156752481Y-78078985D01*
X156871015Y-78197519D01*
X156964147Y-78336900D01*
X157028297Y-78491772D01*
X157061000Y-78656184D01*
X157061000Y-78823816D01*
X157028297Y-78988228D01*
X156964147Y-79143100D01*
X156871015Y-79282481D01*
X156752481Y-79401015D01*
X156613100Y-79494147D01*
X156458228Y-79558297D01*
X156293816Y-79591000D01*
X156126184Y-79591000D01*
X155961772Y-79558297D01*
X155806900Y-79494147D01*
X155667519Y-79401015D01*
X155548985Y-79282481D01*
X155455853Y-79143100D01*
X155391703Y-78988228D01*
X155359000Y-78823816D01*
X155359000Y-78656184D01*
X155391703Y-78491772D01*
X155455853Y-78336900D01*
X155548985Y-78197519D01*
X155667519Y-78078985D01*
X155806900Y-77985853D01*
X155961772Y-77921703D01*
X156126184Y-77889000D01*
X156293816Y-77889000D01*
X156458228Y-77921703D01*
X156458228Y-77921703D01*
G37*
G36*
X136138228Y-75421703D02*
G01*
X136293100Y-75485853D01*
X136432481Y-75578985D01*
X136551015Y-75697519D01*
X136644147Y-75836900D01*
X136708297Y-75991772D01*
X136741000Y-76156184D01*
X136741000Y-76323816D01*
X136708297Y-76488228D01*
X136644147Y-76643100D01*
X136551015Y-76782481D01*
X136432481Y-76901015D01*
X136293100Y-76994147D01*
X136138228Y-77058297D01*
X135973816Y-77091000D01*
X135806184Y-77091000D01*
X135641772Y-77058297D01*
X135486900Y-76994147D01*
X135347519Y-76901015D01*
X135228985Y-76782481D01*
X135135853Y-76643100D01*
X135071703Y-76488228D01*
X135039000Y-76323816D01*
X135039000Y-76156184D01*
X135071703Y-75991772D01*
X135135853Y-75836900D01*
X135228985Y-75697519D01*
X135347519Y-75578985D01*
X135486900Y-75485853D01*
X135641772Y-75421703D01*
X135806184Y-75389000D01*
X135973816Y-75389000D01*
X136138228Y-75421703D01*
X136138228Y-75421703D01*
G37*
G36*
X146298228Y-67761703D02*
G01*
X146453100Y-67825853D01*
X146592481Y-67918985D01*
X146711015Y-68037519D01*
X146804147Y-68176900D01*
X146868297Y-68331772D01*
X146901000Y-68496184D01*
X146901000Y-68663816D01*
X146868297Y-68828228D01*
X146804147Y-68983100D01*
X146711015Y-69122481D01*
X146592481Y-69241015D01*
X146453100Y-69334147D01*
X146298228Y-69398297D01*
X146133816Y-69431000D01*
X145966184Y-69431000D01*
X145801772Y-69398297D01*
X145646900Y-69334147D01*
X145507519Y-69241015D01*
X145388985Y-69122481D01*
X145295853Y-68983100D01*
X145231703Y-68828228D01*
X145199000Y-68663816D01*
X145199000Y-68496184D01*
X145231703Y-68331772D01*
X145295853Y-68176900D01*
X145388985Y-68037519D01*
X145507519Y-67918985D01*
X145646900Y-67825853D01*
X145801772Y-67761703D01*
X145966184Y-67729000D01*
X146133816Y-67729000D01*
X146298228Y-67761703D01*
X146298228Y-67761703D01*
G37*
G36*
X139948228Y-67761703D02*
G01*
X140103100Y-67825853D01*
X140242481Y-67918985D01*
X140361015Y-68037519D01*
X140454147Y-68176900D01*
X140518297Y-68331772D01*
X140551000Y-68496184D01*
X140551000Y-68663816D01*
X140518297Y-68828228D01*
X140454147Y-68983100D01*
X140361015Y-69122481D01*
X140242481Y-69241015D01*
X140103100Y-69334147D01*
X139948228Y-69398297D01*
X139783816Y-69431000D01*
X139616184Y-69431000D01*
X139451772Y-69398297D01*
X139296900Y-69334147D01*
X139157519Y-69241015D01*
X139038985Y-69122481D01*
X138945853Y-68983100D01*
X138881703Y-68828228D01*
X138849000Y-68663816D01*
X138849000Y-68496184D01*
X138881703Y-68331772D01*
X138945853Y-68176900D01*
X139038985Y-68037519D01*
X139157519Y-67918985D01*
X139296900Y-67825853D01*
X139451772Y-67761703D01*
X139616184Y-67729000D01*
X139783816Y-67729000D01*
X139948228Y-67761703D01*
X139948228Y-67761703D01*
G37*
G36*
X156376823Y-67741313D02*
G01*
X156537242Y-67789976D01*
X156604361Y-67825852D01*
X156685078Y-67868996D01*
X156814659Y-67975341D01*
X156921004Y-68104922D01*
X156921005Y-68104924D01*
X157000024Y-68252758D01*
X157048687Y-68413177D01*
X157065117Y-68580000D01*
X157048687Y-68746823D01*
X157000024Y-68907242D01*
X156936284Y-69026491D01*
X156921004Y-69055078D01*
X156814659Y-69184659D01*
X156685078Y-69291004D01*
X156685076Y-69291005D01*
X156537242Y-69370024D01*
X156376823Y-69418687D01*
X156251804Y-69431000D01*
X156168196Y-69431000D01*
X156043177Y-69418687D01*
X155882758Y-69370024D01*
X155734924Y-69291005D01*
X155734922Y-69291004D01*
X155605341Y-69184659D01*
X155498996Y-69055078D01*
X155483716Y-69026491D01*
X155419976Y-68907242D01*
X155371313Y-68746823D01*
X155354883Y-68580000D01*
X155371313Y-68413177D01*
X155419976Y-68252758D01*
X155498995Y-68104924D01*
X155498996Y-68104922D01*
X155605341Y-67975341D01*
X155734922Y-67868996D01*
X155815639Y-67825852D01*
X155882758Y-67789976D01*
X156043177Y-67741313D01*
X156168196Y-67729000D01*
X156251804Y-67729000D01*
X156376823Y-67741313D01*
X156376823Y-67741313D01*
G37*
G36*
X151242916Y-67787334D02*
G01*
X151351492Y-67820271D01*
X151351495Y-67820272D01*
X151387601Y-67839571D01*
X151451557Y-67873756D01*
X151539264Y-67945736D01*
X151602383Y-68022646D01*
X151619702Y-68039965D01*
X151640077Y-68053579D01*
X151662716Y-68062957D01*
X151686749Y-68067737D01*
X151711253Y-68067737D01*
X151735286Y-68062957D01*
X151757925Y-68053579D01*
X151778299Y-68039966D01*
X151795626Y-68022639D01*
X151809240Y-68002264D01*
X151818618Y-67979625D01*
X151823398Y-67955592D01*
X151824000Y-67943340D01*
X151824000Y-67779000D01*
X152976000Y-67779000D01*
X152976000Y-69381000D01*
X151824000Y-69381000D01*
X151824000Y-69216660D01*
X151821598Y-69192274D01*
X151814485Y-69168825D01*
X151802934Y-69147214D01*
X151787389Y-69128272D01*
X151768447Y-69112727D01*
X151746836Y-69101176D01*
X151723387Y-69094063D01*
X151699001Y-69091661D01*
X151674615Y-69094063D01*
X151651166Y-69101176D01*
X151629555Y-69112727D01*
X151602381Y-69137356D01*
X151539264Y-69214264D01*
X151451556Y-69286244D01*
X151387600Y-69320429D01*
X151351494Y-69339728D01*
X151351491Y-69339729D01*
X151242915Y-69372666D01*
X151130000Y-69383787D01*
X151017084Y-69372666D01*
X150908508Y-69339729D01*
X150908505Y-69339728D01*
X150872399Y-69320429D01*
X150808443Y-69286244D01*
X150720736Y-69214264D01*
X150648756Y-69126556D01*
X150605239Y-69045140D01*
X150591625Y-69024766D01*
X150574298Y-69007439D01*
X150553924Y-68993825D01*
X150531285Y-68984448D01*
X150507251Y-68979668D01*
X150482747Y-68979668D01*
X150458714Y-68984449D01*
X150436075Y-68993826D01*
X150415701Y-69007440D01*
X150398374Y-69024767D01*
X150384762Y-69045140D01*
X150341244Y-69126557D01*
X150269264Y-69214264D01*
X150181556Y-69286244D01*
X150117600Y-69320429D01*
X150081494Y-69339728D01*
X150081491Y-69339729D01*
X149972915Y-69372666D01*
X149860000Y-69383787D01*
X149747084Y-69372666D01*
X149638508Y-69339729D01*
X149638505Y-69339728D01*
X149602399Y-69320429D01*
X149538443Y-69286244D01*
X149450736Y-69214264D01*
X149378756Y-69126556D01*
X149335239Y-69045140D01*
X149325272Y-69026494D01*
X149319492Y-69007440D01*
X149292334Y-68917915D01*
X149284000Y-68833297D01*
X149284000Y-68326702D01*
X149292334Y-68242084D01*
X149325271Y-68133508D01*
X149325272Y-68133505D01*
X149378756Y-68033445D01*
X149378757Y-68033443D01*
X149450737Y-67945736D01*
X149538444Y-67873756D01*
X149602400Y-67839571D01*
X149638506Y-67820272D01*
X149638509Y-67820271D01*
X149747085Y-67787334D01*
X149860000Y-67776213D01*
X149972916Y-67787334D01*
X150081492Y-67820271D01*
X150081495Y-67820272D01*
X150117601Y-67839571D01*
X150181557Y-67873756D01*
X150269264Y-67945736D01*
X150341244Y-68033443D01*
X150357019Y-68062957D01*
X150384761Y-68114859D01*
X150398375Y-68135234D01*
X150415702Y-68152561D01*
X150436076Y-68166174D01*
X150458715Y-68175552D01*
X150482748Y-68180332D01*
X150507252Y-68180332D01*
X150531285Y-68175552D01*
X150553924Y-68166174D01*
X150574299Y-68152560D01*
X150591626Y-68135233D01*
X150605239Y-68114859D01*
X150648756Y-68033445D01*
X150648757Y-68033443D01*
X150720737Y-67945736D01*
X150808444Y-67873756D01*
X150872400Y-67839571D01*
X150908506Y-67820272D01*
X150908509Y-67820271D01*
X151017085Y-67787334D01*
X151130000Y-67776213D01*
X151242916Y-67787334D01*
X151242916Y-67787334D01*
G37*
M02*
